HIERARCHY
ROOT hip
{
  OFFSET 0 0 0
  CHANNELS 6 Xposition Yposition Zposition Zrotation Yrotation Xrotation
  JOINT abdomen
  {
    OFFSET 0 20.6881 -0.73152
    CHANNELS 3 Zrotation Xrotation Yrotation
    JOINT chest
    {
      OFFSET 0 11.7043 -0.48768
      CHANNELS 3 Zrotation Xrotation Yrotation
      JOINT neck
      {
        OFFSET 0 22.1894 -2.19456
        CHANNELS 3 Zrotation Xrotation Yrotation
        JOINT head
        {
          OFFSET -0.24384 7.07133 1.2192
          CHANNELS 3 Zrotation Xrotation Yrotation
          JOINT leftEye
          {
            OFFSET 4.14528 8.04674 8.04672
            CHANNELS 3 Zrotation Xrotation Yrotation
            End Site
            {
              OFFSET 1 0 0
            }
          }
          JOINT rightEye
          {
            OFFSET -3.6576 8.04674 8.04672
            CHANNELS 3 Zrotation Xrotation Yrotation
            End Site
            {
              OFFSET 1 0 0
            }
          }
        }
      }
      JOINT rCollar
      {
        OFFSET -2.68224 19.2634 -4.8768
        CHANNELS 3 Zrotation Xrotation Yrotation
        JOINT rShldr
        {
          OFFSET -8.77824 -1.95073 1.46304
          CHANNELS 3 Zrotation Xrotation Yrotation
          JOINT rForeArm
          {
            OFFSET -28.1742 -1.7115 0.48768
            CHANNELS 3 Zrotation Xrotation Yrotation
            JOINT rHand
            {
              OFFSET -22.5879 0.773209 7.07136
              CHANNELS 3 Zrotation Xrotation Yrotation
              JOINT rThumb1
              {
                OFFSET -1.2192 -0.487915 3.41376
                CHANNELS 3 Zrotation Xrotation Yrotation
                JOINT rThumb2
                {
                  OFFSET -3.37035 -0.52449 3.41376
                  CHANNELS 3 Zrotation Xrotation Yrotation
                  End Site
                  {
                    OFFSET -1.78271 -1.18214 1.43049
                  }
                }
              }
              JOINT rIndex1
              {
                OFFSET -7.75947 0.938293 5.60832
                CHANNELS 3 Zrotation Xrotation Yrotation
                JOINT rIndex2
                {
                  OFFSET -2.54057 -0.884171 1.56538
                  CHANNELS 3 Zrotation Xrotation Yrotation
                  End Site
                  {
                    OFFSET -1.62519 -0.234802 1.16502
                  }
                }
              }
              JOINT rMid1
              {
                OFFSET -8.24714 1.18213 3.41376
                CHANNELS 3 Zrotation Xrotation Yrotation
                JOINT rMid2
                {
                  OFFSET -3.10165 -0.590103 1.0647
                  CHANNELS 3 Zrotation Xrotation Yrotation
                  End Site
                  {
                    OFFSET -2.48547 -0.328903 0.83742
                  }
                }
              }
              JOINT rRing1
              {
                OFFSET -8.82822 0.546677 1.51678
                CHANNELS 3 Zrotation Xrotation Yrotation
                JOINT rRing2
                {
                  OFFSET -2.60934 -0.819778 -0.0198488
                  CHANNELS 3 Zrotation Xrotation Yrotation
                  End Site
                  {
                    OFFSET -2.33842 -0.294052 0.168128
                  }
                }
              }
              JOINT rPinky1
              {
                OFFSET -8.27202 -0.0477905 -0.4584
                CHANNELS 3 Zrotation Xrotation Yrotation
                JOINT rPinky2
                {
                  OFFSET -1.82734 -0.647385 -0.700984
                  CHANNELS 3 Zrotation Xrotation Yrotation
                  End Site
                  {
                    OFFSET -1.69225 -0.51767 -0.607171
                  }
                }
              }
            }
          }
        }
      }
      JOINT lCollar
      {
        OFFSET 2.68224 19.2634 -4.8768
        CHANNELS 3 Zrotation Xrotation Yrotation
        JOINT lShldr
        {
          OFFSET 8.77824 -1.95073 1.46304
          CHANNELS 3 Zrotation Xrotation Yrotation
          JOINT lForeArm
          {
            OFFSET 28.1742 -1.7115 0.48768
            CHANNELS 3 Zrotation Xrotation Yrotation
            JOINT lHand
            {
              OFFSET 22.5879 0.773209 7.07136
              CHANNELS 3 Zrotation Xrotation Yrotation
              JOINT lThumb1
              {
                OFFSET 1.2192 -0.487915 3.41376
                CHANNELS 3 Zrotation Xrotation Yrotation
                JOINT lThumb2
                {
                  OFFSET 3.37035 -0.52449 3.41376
                  CHANNELS 3 Zrotation Xrotation Yrotation
                  End Site
                  {
                    OFFSET 1.78271 -1.18214 1.43049
                  }
                }
              }
              JOINT lIndex1
              {
                OFFSET 7.75947 0.938293 5.60832
                CHANNELS 3 Zrotation Xrotation Yrotation
                JOINT lIndex2
                {
                  OFFSET 2.54057 -0.884171 1.56538
                  CHANNELS 3 Zrotation Xrotation Yrotation
                  End Site
                  {
                    OFFSET 1.62519 -0.234802 1.16502
                  }
                }
              }
              JOINT lMid1
              {
                OFFSET 8.24714 1.18213 3.41376
                CHANNELS 3 Zrotation Xrotation Yrotation
                JOINT lMid2
                {
                  OFFSET 3.10165 -0.590103 1.0647
                  CHANNELS 3 Zrotation Xrotation Yrotation
                  End Site
                  {
                    OFFSET 2.48547 -0.328903 0.83742
                  }
                }
              }
              JOINT lRing1
              {
                OFFSET 8.82822 0.546677 1.51678
                CHANNELS 3 Zrotation Xrotation Yrotation
                JOINT lRing2
                {
                  OFFSET 2.60934 -0.819778 -0.0198488
                  CHANNELS 3 Zrotation Xrotation Yrotation
                  End Site
                  {
                    OFFSET 2.33842 -0.294052 0.168128
                  }
                }
              }
              JOINT lPinky1
              {
                OFFSET 8.27202 -0.0477905 -0.4584
                CHANNELS 3 Zrotation Xrotation Yrotation
                JOINT lPinky2
                {
                  OFFSET 1.82734 -0.647385 -0.700984
                  CHANNELS 3 Zrotation Xrotation Yrotation
                  End Site
                  {
                    OFFSET 1.69225 -0.51767 -0.607171
                  }
                }
              }
            }
          }
        }
      }
    }
  }
  JOINT rButtock
  {
    OFFSET -8.77824 4.35084 1.2192
    CHANNELS 3 Zrotation Xrotation Yrotation
    JOINT rThigh
    {
      OFFSET 0 -1.70687 -2.19456
      CHANNELS 3 Zrotation Xrotation Yrotation
      JOINT rShin
      {
        OFFSET 0 -36.8199 0.73152
        CHANNELS 3 Zrotation Xrotation Yrotation
        JOINT rFoot
        {
          OFFSET 0.73152 -45.1104 -5.12064
          CHANNELS 3 Zrotation Xrotation Yrotation
          End Site
          {
            OFFSET -1.1221 -3.69964 12.103
          }
        }
      }
    }
  }
  JOINT lButtock
  {
    OFFSET 8.77824 4.35084 1.2192
    CHANNELS 3 Zrotation Xrotation Yrotation
    JOINT lThigh
    {
      OFFSET 0 -1.70687 -2.19456
      CHANNELS 3 Zrotation Xrotation Yrotation
      JOINT lShin
      {
        OFFSET 0 -36.8199 0.73152
        CHANNELS 3 Zrotation Xrotation Yrotation
        JOINT lFoot
        {
          OFFSET -0.73152 -45.1104 -5.12064
          CHANNELS 3 Zrotation Xrotation Yrotation
          End Site
          {
            OFFSET 1.1221 -3.69964 12.103
          }
        }
      }
    }
  }
}
MOTION
Frames:	4
Frame Time:	0.03333
0.23230873048305511 9.425187110900879 -0.23783165961503983 -8.831254959106445 -22.147520065307617 4.696141242980957 -2.495820999145508 13.337079048156738 2.3749425411224365 1.564009666442871 -10.551462173461914 0.8273341059684753 -5.19553279876709 16.04194450378418 -4.2785210609436035 9.09104061126709 -25.483970642089844 -3.019422769546509 3.068297863006592 -4.075493812561035 4.643848419189453 0.02601260133087635 -0.04001535102725029 0.17249543964862823 -0.034475114196538925 -0.03302168846130371 0.013506540097296238 59.106040954589844 26.10154151916504 -2.362630844116211 -29.306671142578125 -35.621498107910156 76.5262222290039 -3.655874729156494 -1.9209890365600586 -9.776585578918457 1.1546580791473389 0.19240333139896393 -0.39515018463134766 0.06050686538219452 -0.19960637390613556 0.08697150647640228 1.095988154411316 -0.3452922999858856 3.6157896518707275 4.578258037567139 5.946986198425293 2.054609537124634 0.2746953070163727 0.1805068999528885 0.7098749876022339 3.002032518386841 0.8535724878311157 0.1865338832139969 -7.3947954177856445 -8.705199241638184 5.706161975860596 14.88138484954834 7.120560646057129 -3.7126288414001465 -6.360932350158691 -2.6452083587646484 0.20812880992889404 7.648437023162842 1.2971277236938477 -6.647304534912109 -5.537233829498291 -5.126980304718018 9.974308013916016 -56.67642593383789 38.2444953918457 -12.413309097290039 13.656110763549805 -32.20270919799805 -79.71520233154297 -0.4386087954044342 -1.49342942237854 1.4198461771011353 1.889508843421936 -4.253547668457031 5.1251420974731445 -0.11687120050191879 -0.07147269695997238 0.048506446182727814 4.095921516418457 3.7356197834014893 -0.47430580854415894 -10.20173168182373 8.557474136352539 -2.5356712341308594 -1.069663643836975 1.0662988424301147 0.7005348205566406 -3.0355160236358643 0.9903427362442017 0.060119275003671646 -6.9252729415893555 -7.570987701416016 1.8802844285964966 -3.633044719696045 -6.910540580749512 -4.149760723114014 0.030818549916148186 -0.08163698762655258 0.17762644588947296 -2.0267982482910156 -6.249002456665039 -3.6728718280792236 -0.06782978773117065 -0.11895272880792618 -0.013663463294506073 -26.057905197143555 -32.1068000793457 -20.913293838500977 -2.8083837032318115 70.0813217163086 1.8374922275543213 -3.8190436363220215 -10.904903411865234 -11.473114967346191 0.05440053716301918 0.09020782262086868 -0.12842771410942078 29.907268524169922 -43.23122787475586 21.606521606445312 2.5438578128814697 69.75589752197266 -0.33903634548187256 2.352630138397217 -5.245357513427734 10.892904281616211
0.2085038460791111 19.041165709495544 -0.290137343108654 -4.006604194641113 2.258300542831421 8.368070602416992 -2.0937893390655518 17.437780380249023 4.02096700668335 5.792678356170654 -7.806753158569336 3.0445706844329834 -6.503159046173096 11.281587600708008 -6.356078147888184 8.298538208007812 -25.829669952392578 -10.913702964782715 -0.9795110821723938 1.02472722530365 -1.8105217218399048 -0.3211202025413513 0.09309117496013641 -0.12184994667768478 1.547392725944519 0.6232864260673523 -0.11671426147222519 46.02082443237305 41.74014663696289 16.836153030395508 -25.519071578979492 -31.041616439819336 70.4577865600586 0.9478464126586914 0.3014938235282898 2.019601583480835 -1.1246429681777954 -0.17673906683921814 0.19063660502433777 -0.6108980178833008 1.3942211866378784 0.7087202668190002 -0.6629024744033813 0.4265024662017822 -1.5432943105697632 8.544788360595703 5.192238807678223 -0.07409333437681198 -0.617255687713623 -0.005823219195008278 -1.3887776136398315 2.9250502586364746 1.5219905376434326 0.43522530794143677 0.16911141574382782 0.12161246687173843 -0.14137384295463562 10.073837280273438 0.40818721055984497 0.2778721749782562 0.7760475277900696 0.40727120637893677 -0.10616566240787506 1.1356897354125977 -1.4898040294647217 1.2362799644470215 0.1339121162891388 0.058560922741889954 -0.1545320302248001 -59.01496887207031 38.15326690673828 -27.16597557067871 33.610450744628906 -31.750476837158203 -70.25768280029297 1.45939040184021 -21.045209884643555 2.4211652278900146 -0.13657136261463165 0.24342040717601776 -0.2195807546377182 1.3061517477035522 0.16626764833927155 -1.2858368158340454 -1.345078706741333 -1.4638493061065674 0.24468646943569183 -6.820615768432617 4.620218276977539 0.30868399143218994 0.7586249709129333 -0.5231099724769592 -0.43629372119903564 -3.0227277278900146 0.3751928210258484 -0.23112480342388153 0.18859469890594482 0.21254053711891174 -0.18293984234333038 -10.494258880615234 0.7598350048065186 0.09331300109624863 -0.11430547386407852 -0.017584800720214844 0.08194437623023987 -2.3920156955718994 0.16504403948783875 0.9824082255363464 0.015319306403398514 0.2400417923927307 -0.04973317310214043 -32.84733581542969 -52.61687469482422 -28.04619026184082 -0.5563808679580688 66.42324829101562 3.886359214782715 -4.239795684814453 -12.795495986938477 -9.018392562866211 -0.5244776606559753 -0.3118400275707245 0.06078876554965973 42.13589096069336 -45.35162353515625 37.2267951965332 1.6691018342971802 68.20574188232422 -7.7774505615234375 7.276768207550049 -14.887823104858398 16.06520652770996
0.2449232153594494 31.093516945838928 -0.3350319340825081 -0.10358384996652603 16.83331871032715 3.7163405418395996 -5.19844913482666 13.175002098083496 2.1130855083465576 4.009103298187256 -9.566675186157227 0.5493547320365906 -5.892279624938965 15.470502853393555 -7.270520210266113 8.399646759033203 -24.633142471313477 -12.950174331665039 -0.30112022161483765 0.2654656767845154 -0.2729220688343048 -0.00999164953827858 0.005967305973172188 0.2411714345216751 0.1144866943359375 -0.21497182548046112 0.027978645637631416 47.63759231567383 37.4981803894043 15.802862167358398 -28.84255599975586 -29.523061752319336 65.83120727539062 0.6752088069915771 1.9071226119995117 1.237491488456726 -0.109473317861557 0.20094485580921173 0.10514991730451584 -0.04772431403398514 -0.16492874920368195 0.06124352663755417 -0.10746931284666061 -0.09224165230989456 -0.01623549498617649 7.823214054107666 5.500368118286133 0.5094691514968872 0.01080289389938116 0.08156485855579376 -0.15546876192092896 3.0768380165100098 0.6797130107879639 0.20308366417884827 0.14108087122440338 0.02522863633930683 -0.04432862997055054 10.342249870300293 0.6289678812026978 -0.010425880551338196 -0.00468706339597702 0.06125889718532562 0.09000924229621887 1.94463312625885 -0.9538125395774841 0.10986211895942688 0.3653161823749542 0.08086897432804108 -0.4356142282485962 -59.66471481323242 43.807945251464844 -20.533161163330078 30.559484481811523 -33.87764358520508 -74.01579284667969 0.5339106917381287 -26.09086799621582 3.661867380142212 -0.055687326937913895 0.2226971685886383 -0.14500296115875244 -0.15184268355369568 -0.11674267798662186 0.09623785316944122 -0.2689131796360016 -0.06328316777944565 0.006567537784576416 -7.7568464279174805 5.397848129272461 -0.10830000042915344 0.11116338521242142 -0.18351590633392334 -0.10879959911108017 -2.9360363483428955 1.2710304260253906 0.049228597432374954 0.12028110772371292 0.07393825799226761 0.06534091383218765 -10.569777488708496 0.7508819103240967 0.03173220530152321 -0.05681537091732025 -0.040129728615283966 0.2743101716041565 -2.1134769916534424 -0.8662837147712708 0.2492603063583374 0.057791560888290405 -0.21968883275985718 0.07240616530179977 -37.02252960205078 -52.857852935791016 -31.63800811767578 -1.31387197971344 66.78553009033203 2.372032403945923 -0.7444294095039368 -8.0897855758667 -1.6072946786880493 0.02485138177871704 0.17379233241081238 -0.3970615267753601 20.40598487854004 -26.96895408630371 12.877265930175781 1.9727519750595093 59.72529602050781 -3.472339630126953 6.1848344802856445 -15.06299114227295 20.295930862426758
0.36114761605858803 43.07330846786499 -0.33783456310629845 1.3051323890686035 21.780920028686523 0.528613805770874 -7.349898815155029 11.688309669494629 0.49446824193000793 4.0329437255859375 -9.678167343139648 -0.03380189090967178 -6.458147048950195 16.820188522338867 -8.534153938293457 9.678930282592773 -24.087078094482422 -15.313502311706543 -0.02825147844851017 -0.144623801112175 0.10035546123981476 -0.0171076450496912 -0.03272238373756409 0.22586922347545624 -0.1209862008690834 -0.2855580449104309 0.048705972731113434 50.75979995727539 30.295516967773438 10.852691650390625 -27.721498489379883 -25.30814552307129 59.747196197509766 0.17269985377788544 2.1428492069244385 -0.3137187659740448 0.196668341755867 0.24338190257549286 0.02873101830482483 0.11388939619064331 -0.38416409492492676 0.09950798004865646 0.057747017592191696 -0.040384966880083084 0.3962115943431854 7.546106815338135 5.500474452972412 0.6179680228233337 0.1488315910100937 0.18308818340301514 0.11144264042377472 3.0409154891967773 0.7542024254798889 0.23648107051849365 -0.17408612370491028 -0.18332049250602722 0.11151241511106491 10.494492530822754 0.9700201153755188 -0.18969963490962982 -0.37246173620224 -0.07627454400062561 0.08661841601133347 2.381027936935425 -0.8523404002189636 -0.24145032465457916 0.029255302622914314 -0.14999298751354218 -0.04057327285408974 -62.37234878540039 50.31694412231445 -11.540130615234375 27.48617935180664 -34.67708206176758 -76.64578247070312 1.0546339750289917 -28.374696731567383 4.462454795837402 -0.012465010397136211 0.011430072598159313 0.06268426775932312 -0.375410795211792 -0.23741763830184937 0.0639643594622612 0.16777873039245605 0.26567351818084717 -0.06410171836614609 -7.971396446228027 5.667741775512695 -0.3120132088661194 -0.03595947101712227 -0.015388095751404762 0.005324686877429485 -3.118834972381592 1.0868279933929443 0.1142938956618309 -0.20244714617729187 -0.20270656049251556 0.03087724931538105 -10.241341590881348 0.40458106994628906 -0.10765710473060608 -0.04233870655298233 -0.12113317102193832 0.1635037362575531 -2.1348133087158203 -1.1707440614700317 -0.010558254085481167 0.037414271384477615 -0.21247489750385284 0.06050415709614754 -37.19303512573242 -55.15559768676758 -31.985057830810547 -1.4463109970092773 67.31546783447266 1.6439695358276367 0.6954233050346375 -5.979395866394043 5.617691516876221 -0.08135652542114258 0.1297973394393921 -0.39356642961502075 10.241007804870605 -6.510078430175781 2.5748963356018066 1.5380553007125854 49.5388298034668 -1.7315374612808228 7.970555305480957 -16.170555114746094 25.39641571044922
